<svg id="visual" viewBox="0 0 900 600" width="900" height="600" xmlns="http://www.w3.org/2000/svg" xmlns:xlink="http://www.w3.org/1999/xlink" version="1.1"><rect x="0" y="0" width="900" height="600" fill="#ffffff"></rect><path d="M0 174L75 194.7C150 215.3 300 256.7 450 259.2C600 261.7 750 225.3 825 207.2L900 189L900 0L825 0C750 0 600 0 450 0C300 0 150 0 75 0L0 0Z" fill="#4facf7"></path><path d="M0 184L75 195C150 206 300 228 450 213C600 198 750 146 825 120L900 94L900 0L825 0C750 0 600 0 450 0C300 0 150 0 75 0L0 0Z" fill="#2271b7"></path><path d="M0 111L75 118.2C150 125.3 300 139.7 450 145.2C600 150.7 750 147.3 825 145.7L900 144L900 0L825 0C750 0 600 0 450 0C300 0 150 0 75 0L0 0Z" fill="#003b79"></path><path d="M0 58L75 64.3C150 70.7 300 83.3 450 88C600 92.7 750 89.3 825 87.7L900 86L900 0L825 0C750 0 600 0 450 0C300 0 150 0 75 0L0 0Z" fill="#000000"></path></svg>