<svg id="visual" viewBox="0 0 900 600" width="900" height="600" xmlns="http://www.w3.org/2000/svg" xmlns:xlink="http://www.w3.org/1999/xlink" version="1.1"><rect x="0" y="0" width="900" height="600" fill="#ffffff"></rect><path d="M0 179L21.5 181C43 183 86 187 128.8 187.8C171.7 188.7 214.3 186.3 257.2 188.5C300 190.7 343 197.3 385.8 199.8C428.7 202.3 471.3 200.7 514.2 201.8C557 203 600 207 642.8 204.7C685.7 202.3 728.3 193.7 771.2 186.8C814 180 857 175 878.5 172.5L900 170L900 0L878.5 0C857 0 814 0 771.2 0C728.3 0 685.7 0 642.8 0C600 0 557 0 514.2 0C471.3 0 428.7 0 385.8 0C343 0 300 0 257.2 0C214.3 0 171.7 0 128.8 0C86 0 43 0 21.5 0L0 0Z" fill="#4facf7"></path><path d="M0 136L21.5 139.2C43 142.3 86 148.7 128.8 147.5C171.7 146.3 214.3 137.7 257.2 137.7C300 137.7 343 146.3 385.8 150.7C428.7 155 471.3 155 514.2 158.5C557 162 600 169 642.8 165.5C685.7 162 728.3 148 771.2 145.7C814 143.3 857 152.7 878.5 157.3L900 162L900 0L878.5 0C857 0 814 0 771.2 0C728.3 0 685.7 0 642.8 0C600 0 557 0 514.2 0C471.3 0 428.7 0 385.8 0C343 0 300 0 257.2 0C214.3 0 171.7 0 128.8 0C86 0 43 0 21.5 0L0 0Z" fill="#3474a9"></path><path d="M0 84L21.5 90.7C43 97.3 86 110.7 128.8 111.3C171.7 112 214.3 100 257.2 93C300 86 343 84 385.8 85.2C428.7 86.3 471.3 90.7 514.2 94.3C557 98 600 101 642.8 104.8C685.7 108.7 728.3 113.3 771.2 109.7C814 106 857 94 878.5 88L900 82L900 0L878.5 0C857 0 814 0 771.2 0C728.3 0 685.7 0 642.8 0C600 0 557 0 514.2 0C471.3 0 428.7 0 385.8 0C343 0 300 0 257.2 0C214.3 0 171.7 0 128.8 0C86 0 43 0 21.5 0L0 0Z" fill="#1a4061"></path><path d="M0 47L21.5 48.5C43 50 86 53 128.8 57.5C171.7 62 214.3 68 257.2 67C300 66 343 58 385.8 53.7C428.7 49.3 471.3 48.7 514.2 53.2C557 57.7 600 67.3 642.8 69.5C685.7 71.7 728.3 66.3 771.2 64C814 61.7 857 62.3 878.5 62.7L900 63L900 0L878.5 0C857 0 814 0 771.2 0C728.3 0 685.7 0 642.8 0C600 0 557 0 514.2 0C471.3 0 428.7 0 385.8 0C343 0 300 0 257.2 0C214.3 0 171.7 0 128.8 0C86 0 43 0 21.5 0L0 0Z" fill="#001122"></path></svg>