<svg id="visual" width="960" height="540" xmlns="http://www.w3.org/2000/svg" xmlns:xlink="http://www.w3.org/1999/xlink" version="1.1"><rect x="0" y="0" width="960" height="540" fill="#001220"></rect><path d="M0 260L16 270.8C32 281.7 64 303.3 96 304.2C128 305 160 285 192 280.2C224 275.3 256 285.7 288 285.3C320 285 352 274 384 278.7C416 283.3 448 303.7 480 310C512 316.3 544 308.7 576 309.7C608 310.7 640 320.3 672 319.7C704 319 736 308 768 299C800 290 832 283 864 278.8C896 274.7 928 273.3 944 272.7L960 272L960 541L944 541C928 541 896 541 864 541C832 541 800 541 768 541C736 541 704 541 672 541C640 541 608 541 576 541C544 541 512 541 480 541C448 541 416 541 384 541C352 541 320 541 288 541C256 541 224 541 192 541C160 541 128 541 96 541C64 541 32 541 16 541L0 541Z" fill="#4facf7"></path><path d="M0 385L16 374.2C32 363.3 64 341.7 96 343.2C128 344.7 160 369.3 192 381.7C224 394 256 394 288 383.7C320 373.3 352 352.7 384 340.2C416 327.7 448 323.3 480 331.7C512 340 544 361 576 373.2C608 385.3 640 388.7 672 377.7C704 366.7 736 341.3 768 338.7C800 336 832 356 864 361.3C896 366.7 928 357.3 944 352.7L960 348L960 541L944 541C928 541 896 541 864 541C832 541 800 541 768 541C736 541 704 541 672 541C640 541 608 541 576 541C544 541 512 541 480 541C448 541 416 541 384 541C352 541 320 541 288 541C256 541 224 541 192 541C160 541 128 541 96 541C64 541 32 541 16 541L0 541Z" fill="#1a98fd"></path><path d="M0 390L16 394.8C32 399.7 64 409.3 96 413.3C128 417.3 160 415.7 192 414.7C224 413.7 256 413.3 288 402.7C320 392 352 371 384 370.5C416 370 448 390 480 392.3C512 394.7 544 379.3 576 378.3C608 377.3 640 390.7 672 392.5C704 394.3 736 384.7 768 382C800 379.3 832 383.7 864 387.8C896 392 928 396 944 398L960 400L960 541L944 541C928 541 896 541 864 541C832 541 800 541 768 541C736 541 704 541 672 541C640 541 608 541 576 541C544 541 512 541 480 541C448 541 416 541 384 541C352 541 320 541 288 541C256 541 224 541 192 541C160 541 128 541 96 541C64 541 32 541 16 541L0 541Z" fill="#0081ff"></path><path d="M0 404L16 409C32 414 64 424 96 422.3C128 420.7 160 407.3 192 398.7C224 390 256 386 288 386.3C320 386.7 352 391.3 384 400.5C416 409.7 448 423.3 480 433.3C512 443.3 544 449.7 576 445.5C608 441.3 640 426.7 672 425.3C704 424 736 436 768 434C800 432 832 416 864 411.5C896 407 928 414 944 417.5L960 421L960 541L944 541C928 541 896 541 864 541C832 541 800 541 768 541C736 541 704 541 672 541C640 541 608 541 576 541C544 541 512 541 480 541C448 541 416 541 384 541C352 541 320 541 288 541C256 541 224 541 192 541C160 541 128 541 96 541C64 541 32 541 16 541L0 541Z" fill="#0066ff"></path><path d="M0 423L16 432C32 441 64 459 96 469.8C128 480.7 160 484.3 192 486.3C224 488.3 256 488.7 288 488.5C320 488.3 352 487.7 384 476.7C416 465.7 448 444.3 480 434C512 423.7 544 424.3 576 433.5C608 442.7 640 460.3 672 468C704 475.7 736 473.3 768 474.3C800 475.3 832 479.7 864 476.7C896 473.7 928 463.3 944 458.2L960 453L960 541L944 541C928 541 896 541 864 541C832 541 800 541 768 541C736 541 704 541 672 541C640 541 608 541 576 541C544 541 512 541 480 541C448 541 416 541 384 541C352 541 320 541 288 541C256 541 224 541 192 541C160 541 128 541 96 541C64 541 32 541 16 541L0 541Z" fill="#0046ff"></path><path d="M0 483L16 484C32 485 64 487 96 489.3C128 491.7 160 494.3 192 497.7C224 501 256 505 288 500.8C320 496.7 352 484.3 384 483C416 481.7 448 491.3 480 496C512 500.7 544 500.3 576 503.2C608 506 640 512 672 514.8C704 517.7 736 517.3 768 512.7C800 508 832 499 864 491.2C896 483.3 928 476.7 944 473.3L960 470L960 541L944 541C928 541 896 541 864 541C832 541 800 541 768 541C736 541 704 541 672 541C640 541 608 541 576 541C544 541 512 541 480 541C448 541 416 541 384 541C352 541 320 541 288 541C256 541 224 541 192 541C160 541 128 541 96 541C64 541 32 541 16 541L0 541Z" fill="#0001ff"></path></svg>